<svg width="17" height="16" viewBox="0 0 17 16" fill="none" xmlns="http://www.w3.org/2000/svg">
<path d="M6.59977 3.33333H5.26644C4.91282 3.33333 4.57368 3.47381 4.32363 3.72386C4.07358 3.97391 3.93311 4.31304 3.93311 4.66667V12.6667C3.93311 13.0203 4.07358 13.3594 4.32363 13.6095C4.57368 13.8595 4.91282 14 5.26644 14H11.9331C12.2867 14 12.6259 13.8595 12.8759 13.6095C13.126 13.3594 13.2664 13.0203 13.2664 12.6667V4.66667C13.2664 4.31304 13.126 3.97391 12.8759 3.72386C12.6259 3.47381 12.2867 3.33333 11.9331 3.33333H10.5998M6.59977 3.33333C6.59977 2.97971 6.74025 2.64057 6.9903 2.39052C7.24034 2.14048 7.57948 2 7.93311 2H9.26644C9.62006 2 9.9592 2.14048 10.2092 2.39052C10.4593 2.64057 10.5998 2.97971 10.5998 3.33333M6.59977 3.33333C6.59977 3.68696 6.74025 4.02609 6.9903 4.27614C7.24034 4.52619 7.57948 4.66667 7.93311 4.66667H9.26644C9.62006 4.66667 9.9592 4.52619 10.2092 4.27614C10.4593 4.02609 10.5998 3.68696 10.5998 3.33333M6.59977 11.3333V8.66667M8.59977 11.3333V10.6667M10.5998 11.3333V10" stroke="#131313" stroke-width="1.25" stroke-linecap="round" stroke-linejoin="round"/>
</svg>
