<svg width="19" height="20" viewBox="0 0 19 20" fill="none" xmlns="http://www.w3.org/2000/svg">
<path d="M11.2061 6.99264V5.44957C11.2061 5.04032 11.0436 4.64783 10.7542 4.35845C10.4648 4.06907 10.0723 3.90649 9.66306 3.90649H4.26231C3.85306 3.90649 3.46058 4.06907 3.17119 4.35845C2.88181 4.64783 2.71924 5.04032 2.71924 5.44957V14.708C2.71924 15.1172 2.88181 15.5097 3.17119 15.7991C3.46058 16.0885 3.85306 16.2511 4.26231 16.2511H9.66306C10.0723 16.2511 10.4648 16.0885 10.7542 15.7991C11.0436 15.5097 11.2061 15.1172 11.2061 14.708V13.1649M7.34845 10.0788H16.6069M16.6069 10.0788L14.2923 7.76417M16.6069 10.0788L14.2923 12.3934" stroke="#B01212" stroke-width="1.44663" stroke-linecap="round" stroke-linejoin="round"/>
</svg>
