<svg width="17" height="16" viewBox="0 0 17 16" fill="none" xmlns="http://www.w3.org/2000/svg">
<path d="M7.26611 2.66667L9.93278 13.3333M8.59945 8L3.26611 9.33333M3.26611 4C3.26611 3.64638 3.40659 3.30724 3.65664 3.05719C3.90669 2.80714 4.24582 2.66667 4.59945 2.66667H12.5994C12.9531 2.66667 13.2922 2.80714 13.5423 3.05719C13.7923 3.30724 13.9328 3.64638 13.9328 4V12C13.9328 12.3536 13.7923 12.6928 13.5423 12.9428C13.2922 13.1929 12.9531 13.3333 12.5994 13.3333H4.59945C4.24582 13.3333 3.90669 13.1929 3.65664 12.9428C3.40659 12.6928 3.26611 12.3536 3.26611 12V4Z" stroke="#131313" stroke-width="1.25" stroke-linecap="round" stroke-linejoin="round"/>
</svg>
