<svg width="18" height="18" viewBox="0 0 18 18" fill="none" xmlns="http://www.w3.org/2000/svg">
<path d="M9 11.25L6.75 9M9 11.25C10.0476 10.8516 11.0527 10.349 12 9.75M9 11.25V15C9 15 11.2725 14.5875 12 13.5C12.81 12.285 12 9.75 12 9.75M6.75 9C7.14911 7.96458 7.65165 6.97205 8.25 6.0375C9.12389 4.64024 10.3407 3.48979 11.7847 2.69557C13.2288 1.90135 14.852 1.48978 16.5 1.5C16.5 3.54 15.915 7.125 12 9.75M6.75 9L3 9.00001C3 9.00001 3.4125 6.72752 4.5 6.00002C5.715 5.19001 8.25 6.00002 8.25 6.00002M3.375 12.3751C2.25 13.3201 1.875 16.1251 1.875 16.1251C1.875 16.1251 4.68 15.7501 5.625 14.6251C6.1575 13.9951 6.15 13.0276 5.5575 12.4426C5.26598 12.1643 4.88197 12.0035 4.47917 11.9911C4.07637 11.9786 3.68316 12.1154 3.375 12.3751Z" stroke="white" stroke-width="0.829499" stroke-linecap="round" stroke-linejoin="round"/>
</svg>
