<svg width="16" height="16" viewBox="0 0 16 16" fill="none" xmlns="http://www.w3.org/2000/svg">
<path d="M12.1402 2.51337H3.05907C1.70075 2.51337 0.599609 3.61452 0.599609 4.97287V12.5406C0.599609 13.8989 1.70075 15.0001 3.05907 15.0001H12.1402C13.4985 15.0001 14.5996 13.8989 14.5996 12.5406V4.97287C14.5996 3.61452 13.4985 2.51337 12.1402 2.51337Z" stroke="#131313" stroke-width="1.03094"/>
<path d="M3.62598 1.00012V3.64882" stroke="#131313" stroke-width="1.03094" stroke-linecap="round"/>
<path d="M1.35645 5.91925H13.8429" stroke="#131313" stroke-width="1.03094" stroke-linecap="round"/>
<path d="M11.9507 1.00012V3.64882" stroke="#131313" stroke-width="1.03094" stroke-linecap="round"/>
<path d="M4.76074 8.89392C4.78944 8.89392 4.81337 8.91698 4.81348 8.94568C4.81348 8.97447 4.78951 8.99841 4.76074 8.99841C4.73206 8.99831 4.70898 8.9744 4.70898 8.94568C4.70909 8.91704 4.73213 8.89402 4.76074 8.89392Z" fill="#131313" stroke="#131313" stroke-width="1.03094"/>
<path d="M7.78906 8.89392C7.81776 8.89392 7.84169 8.91698 7.8418 8.94568C7.8418 8.97447 7.81783 8.99841 7.78906 8.99841C7.76038 8.99831 7.7373 8.9744 7.7373 8.94568C7.73741 8.91704 7.76045 8.89402 7.78906 8.89392Z" fill="#131313" stroke="#131313" stroke-width="1.03094"/>
<path d="M10.8159 8.89392C10.8446 8.89392 10.8685 8.91698 10.8687 8.94568C10.8687 8.97447 10.8447 8.99841 10.8159 8.99841C10.7872 8.99831 10.7642 8.9744 10.7642 8.94568C10.7643 8.91704 10.7873 8.89402 10.8159 8.89392Z" fill="#131313" stroke="#131313" stroke-width="1.03094"/>
<path d="M4.76074 11.921C4.78944 11.921 4.81337 11.9441 4.81348 11.9728C4.81348 12.0016 4.78951 12.0255 4.76074 12.0255C4.73206 12.0254 4.70898 12.0015 4.70898 11.9728C4.70909 11.9441 4.73213 11.9211 4.76074 11.921Z" fill="#131313" stroke="#131313" stroke-width="1.03094"/>
<path d="M7.78906 11.921C7.81776 11.921 7.84169 11.9441 7.8418 11.9728C7.8418 12.0016 7.81783 12.0255 7.78906 12.0255C7.76038 12.0254 7.7373 12.0015 7.7373 11.9728C7.73741 11.9441 7.76045 11.9211 7.78906 11.921Z" fill="#131313" stroke="#131313" stroke-width="1.03094"/>
<path d="M10.8159 11.921C10.8446 11.921 10.8685 11.9441 10.8687 11.9728C10.8687 12.0016 10.8447 12.0255 10.8159 12.0255C10.7872 12.0254 10.7642 12.0015 10.7642 11.9728C10.7643 11.9441 10.7873 11.9211 10.8159 11.921Z" fill="#131313" stroke="#131313" stroke-width="1.03094"/>
</svg>
