<svg width="16" height="17" viewBox="0 0 16 17" fill="none" xmlns="http://www.w3.org/2000/svg">
<path d="M13.7389 4.05073C14.0041 4.20154 14.2243 4.42028 14.3768 4.68444C14.5294 4.9486 14.6088 5.24864 14.6069 5.55368V11.1735C14.6069 11.7977 14.2651 12.3733 13.7134 12.6765L8.50558 15.971C8.24739 16.1127 7.9576 16.187 7.66306 16.187C7.36851 16.187 7.07873 16.1127 6.82054 15.971L1.61268 12.6765C1.34277 12.529 1.11745 12.3117 0.960275 12.0473C0.803104 11.7829 0.719856 11.4811 0.719238 11.1735V5.55291C0.719238 4.92874 1.06103 4.35395 1.61268 4.05073L6.82054 0.98002C7.08636 0.833457 7.38497 0.756592 7.68852 0.756592C7.99207 0.756592 8.29067 0.833457 8.5565 0.98002L13.7644 4.05073H13.7389Z" stroke="#7D7D7D" stroke-width="1.44663" stroke-linecap="round" stroke-linejoin="round"/>
<path d="M5.34845 8.47164C5.34845 9.08551 5.59231 9.67424 6.02638 10.1083C6.46046 10.5424 7.04919 10.7862 7.66306 10.7862C8.27693 10.7862 8.86566 10.5424 9.29973 10.1083C9.73381 9.67424 9.97767 9.08551 9.97767 8.47164C9.97767 7.85777 9.73381 7.26904 9.29973 6.83497C8.86566 6.40089 8.27693 6.15703 7.66306 6.15703C7.04919 6.15703 6.46046 6.40089 6.02638 6.83497C5.59231 7.26904 5.34845 7.85777 5.34845 8.47164Z" stroke="#7D7D7D" stroke-width="1.44663" stroke-linecap="round" stroke-linejoin="round"/>
</svg>
