<svg width="15583" height="4083" viewBox="0 0 15583 4083" fill="none" xmlns="http://www.w3.org/2000/svg">
<rect width="15581.3" height="4082.3" transform="translate(0.773438)" fill="white"/>
<path d="M2121.91 2968.67L2409.19 2410.52H2950.93L3176.65 2968.67H2121.91Z" fill="#6EB46E"/>
<path d="M3332.65 1679.99H2220.45L1842.88 2410.51H2950.97L3332.65 1679.99Z" fill="#002A00"/>
<path d="M2220.41 1680.01L1998.79 1121.86H3074.05L2786.76 1680.01H2220.41Z" fill="#6EB46E"/>
<path d="M1998.79 1121.85L1621.22 1852.37L1842.84 2410.52L2220.41 1680L1998.79 1121.85Z" fill="#005F00"/>
<path d="M2950.91 2410.51L3332.58 1679.99L3554.2 2238.14L3176.63 2968.66L2950.91 2410.51Z" fill="#005F00"/>
<path d="M4859.18 1676.82C4850.52 1603.67 4815.39 1546.88 4753.79 1506.46C4692.19 1466.04 4616.64 1445.82 4527.13 1445.82C4461.68 1445.82 4404.41 1456.41 4355.33 1477.59C4306.72 1498.76 4268.7 1527.88 4241.27 1564.93C4214.32 1601.99 4200.85 1644.09 4200.85 1691.26C4200.85 1730.72 4210.23 1764.64 4229 1793.04C4248.25 1820.95 4272.79 1844.29 4302.63 1863.06C4332.47 1881.34 4363.75 1896.5 4396.47 1908.53C4429.2 1920.08 4459.27 1929.47 4486.7 1936.69L4636.85 1977.11C4675.35 1987.22 4718.18 2001.17 4765.34 2018.98C4812.98 2036.78 4858.46 2061.09 4901.77 2091.89C4945.56 2122.2 4981.66 2161.18 5010.05 2208.83C5038.44 2256.47 5052.64 2314.94 5052.64 2384.24C5052.64 2464.12 5031.71 2536.31 4989.84 2600.8C4948.45 2665.28 4887.82 2716.53 4807.93 2754.55C4728.53 2792.57 4632.04 2811.58 4518.47 2811.58C4412.59 2811.58 4320.92 2794.49 4243.44 2760.33C4166.44 2726.16 4105.8 2678.51 4061.53 2617.4C4017.74 2556.28 3992.95 2485.3 3987.18 2404.45H4171.98C4176.79 2460.27 4195.56 2506.47 4228.28 2543.05C4261.49 2579.14 4303.35 2606.09 4353.88 2623.89C4404.89 2641.22 4459.76 2649.88 4518.47 2649.88C4586.8 2649.88 4648.16 2638.81 4702.54 2616.68C4756.92 2594.06 4799.99 2562.78 4831.75 2522.83C4863.51 2482.41 4879.39 2435.25 4879.39 2381.35C4879.39 2332.26 4865.68 2292.32 4838.25 2261.52C4810.82 2230.72 4774.73 2205.7 4729.97 2186.45C4685.22 2167.2 4636.85 2150.36 4584.88 2135.92L4402.97 2083.95C4287.47 2050.74 4196.04 2003.34 4128.66 1941.74C4061.29 1880.14 4027.6 1799.53 4027.6 1699.92C4027.6 1617.14 4049.98 1544.96 4094.74 1483.36C4139.97 1421.28 4200.61 1373.16 4276.64 1338.99C4353.16 1304.34 4438.58 1287.02 4532.9 1287.02C4628.19 1287.02 4712.89 1304.1 4787 1338.27C4861.11 1371.95 4919.82 1418.15 4963.13 1476.86C5006.92 1535.57 5030.02 1602.23 5032.43 1676.82H4859.18Z" fill="#002A00"/>
<path d="M5219.93 1307.23H5424.94L5834.95 1997.32H5852.28L6262.29 1307.23H6467.3L5933.13 2176.34V2785.59H5754.1V2176.34L5219.93 1307.23Z" fill="#002A00"/>
<path d="M7871.13 1307.23V2785.59H7697.89L6892.29 1624.84H6877.86V2785.59H6698.83V1307.23H6872.08L7680.56 2470.86H7695V1307.23H7871.13Z" fill="#002A00"/>
<path d="M9418.97 1769.22H9239.95C9229.36 1717.72 9210.84 1672.49 9184.37 1633.51C9158.38 1594.53 9126.62 1561.8 9089.08 1535.33C9052.03 1508.39 9010.88 1488.17 8965.65 1474.7C8920.41 1461.22 8873.25 1454.49 8824.16 1454.49C8734.65 1454.49 8653.56 1477.1 8580.9 1522.34C8508.71 1567.58 8451.2 1634.23 8408.37 1722.3C8366.02 1810.36 8344.85 1918.4 8344.85 2046.41C8344.85 2174.42 8366.02 2282.46 8408.37 2370.52C8451.2 2458.59 8508.71 2525.24 8580.9 2570.48C8653.56 2615.71 8734.65 2638.33 8824.16 2638.33C8873.25 2638.33 8920.41 2631.59 8965.65 2618.12C9010.88 2604.64 9052.03 2584.67 9089.08 2558.21C9126.62 2531.26 9158.38 2498.29 9184.37 2459.31C9210.84 2419.85 9229.36 2374.61 9239.95 2323.6H9418.97C9405.5 2399.16 9380.95 2466.77 9345.34 2526.44C9309.73 2586.12 9265.46 2636.89 9212.52 2678.76C9159.58 2720.14 9100.15 2751.66 9034.22 2773.32C8968.77 2794.97 8898.75 2805.8 8824.16 2805.8C8698.08 2805.8 8585.95 2775 8487.78 2713.4C8389.6 2651.81 8312.37 2564.22 8256.06 2450.65C8199.76 2337.08 8171.6 2202.33 8171.6 2046.41C8171.6 1890.49 8199.76 1755.74 8256.06 1642.17C8312.37 1528.6 8389.6 1441.01 8487.78 1379.41C8585.95 1317.81 8698.08 1287.02 8824.16 1287.02C8898.75 1287.02 8968.77 1297.84 9034.22 1319.5C9100.15 1341.15 9159.58 1372.92 9212.52 1414.78C9265.46 1456.17 9309.73 1506.7 9345.34 1566.37C9380.95 1625.57 9405.5 1693.18 9418.97 1769.22Z" fill="#002A00"/>
<path d="M10880.6 1307.23V2785.59H10707.3L9901.71 1624.84H9887.28V2785.59H9708.26V1307.23H9881.5L10690 2470.86H10704.4V1307.23H10880.6Z" fill="#002A00"/>
<path d="M12486.1 2046.41C12486.1 2202.33 12458 2337.08 12401.7 2450.65C12345.4 2564.22 12268.1 2651.81 12170 2713.4C12071.8 2775 11959.7 2805.8 11833.6 2805.8C11707.5 2805.8 11595.4 2775 11497.2 2713.4C11399 2651.81 11321.8 2564.22 11265.5 2450.65C11209.2 2337.08 11181 2202.33 11181 2046.41C11181 1890.49 11209.2 1755.74 11265.5 1642.17C11321.8 1528.6 11399 1441.01 11497.2 1379.41C11595.4 1317.81 11707.5 1287.02 11833.6 1287.02C11959.7 1287.02 12071.8 1317.81 12170 1379.41C12268.1 1441.01 12345.4 1528.6 12401.7 1642.17C12458 1755.74 12486.1 1890.49 12486.1 2046.41ZM12312.9 2046.41C12312.9 1918.4 12291.5 1810.36 12248.7 1722.3C12206.3 1634.23 12148.8 1567.58 12076.1 1522.34C12003.9 1477.1 11923.1 1454.49 11833.6 1454.49C11744.1 1454.49 11663 1477.1 11590.3 1522.34C11518.1 1567.58 11460.6 1634.23 11417.8 1722.3C11375.4 1810.36 11354.3 1918.4 11354.3 2046.41C11354.3 2174.42 11375.4 2282.46 11417.8 2370.52C11460.6 2458.59 11518.1 2525.24 11590.3 2570.48C11663 2615.71 11744.1 2638.33 11833.6 2638.33C11923.1 2638.33 12003.9 2615.71 12076.1 2570.48C12148.8 2525.24 12206.3 2458.59 12248.7 2370.52C12291.5 2282.46 12312.9 2174.42 12312.9 2046.41Z" fill="#002A00"/>
<path d="M12850 1307.23L13231.1 1922.25H13242.6L13623.8 1307.23H13834.6L13369.7 2046.41L13834.6 2785.59H13623.8L13242.6 2182.12H13231.1L12850 2785.59H12639.2L13115.6 2046.41L12639.2 1307.23H12850Z" fill="#002A00"/>
</svg>
